<svg xmlns="http://www.w3.org/2000/svg" fill="none" viewBox="0 0 38 50">
  <path fill="currentColor" d="M19.044 25c6.893 0 12.5-5.606 12.5-12.5S25.937 0 19.044 0c-6.894 0-12.5 5.606-12.5 12.5S12.15 25 19.044 25Zm0-22.917c5.744 0 10.416 4.673 10.416 10.417s-4.672 10.417-10.416 10.417c-5.744 0-10.417-4.673-10.417-10.417S13.302 2.083 19.044 2.083Zm9.331 27.084H9.625c-5.169 0-9.375 4.206-9.375 9.375V50h2.083V38.542c0-4.021 3.271-7.292 7.292-7.292h1.042v6.383c-1.815.45-3.17 2.082-3.17 4.034a4.17 4.17 0 0 0 4.168 4.166 4.17 4.17 0 0 0 4.166-4.166c0-1.92-1.312-3.523-3.081-4.005V31.25h12.5v7.398a5.215 5.215 0 0 0-4.167 5.102V50h2.084v-6.25a3.129 3.129 0 0 1 3.125-3.125 3.129 3.129 0 0 1 3.125 3.125V50H31.5v-6.25a5.213 5.213 0 0 0-4.167-5.102V31.25h1.042c4.02 0 7.292 3.27 7.292 7.292V50h2.083V38.542c0-5.17-4.206-9.375-9.375-9.375Zm-14.627 12.5a2.084 2.084 0 1 1-4.168-.002 2.084 2.084 0 0 1 4.168.002Z"/>
</svg>
