<svg xmlns="http://www.w3.org/2000/svg" data-name="Layer 1" viewBox="0 0 24 24">
  <path fill="currentColor" d="M10.471 24a2.44 2.44 0 0 1-2.006-1.029 2.44 2.44 0 0 1-.333-2.23L10.174 15H5.388L4.16 16.872A2.493 2.493 0 0 1 2.069 18a2.057 2.057 0 0 1-1.935-2.762l1.129-3.23L.067 8.875c-.158-.809.032-1.564.484-2.108a2.065 2.065 0 0 1 1.608-.766c.842 0 1.621.418 2.085 1.12l1.245 1.88h4.684L8.134 3.268a2.441 2.441 0 0 1 .33-2.237A2.44 2.44 0 0 1 10.47.002c1.037 0 1.99.565 2.487 1.476l4.307 7.524h3.602c1.531 0 2.861 1.075 3.093 2.5.144.881-.102 1.771-.673 2.443S21.882 15.002 21 15.002h-3.735l-4.312 7.533a2.827 2.827 0 0 1-2.482 1.467ZM5.118 14h5.765a.5.5 0 0 1 .47.668l-2.277 6.401c-.15.447-.078.93.201 1.319S9.991 23 10.47 23c.671 0 1.288-.366 1.61-.956l4.46-7.793a.5.5 0 0 1 .434-.251h4.025c.588 0 1.144-.257 1.524-.705a1.987 1.987 0 0 0 .448-1.634c-.154-.947-1.06-1.661-2.106-1.661h-3.892a.5.5 0 0 1-.434-.251l-4.453-7.785A1.839 1.839 0 0 0 10.471 1c-.479 0-.914.223-1.193.612s-.352.873-.198 1.327l2.274 6.394a.5.5 0 0 1-.47.668H5.222a.5.5 0 0 1-.417-.224L3.411 7.673c-.457-.69-1.533-.935-2.091-.266a1.472 1.472 0 0 0-.295 1.2l1.236 3.216a.5.5 0 0 1 .005.343l-1.191 3.41c-.122.335-.076.688.124.975s.516.451.865.451a1.5 1.5 0 0 0 1.26-.677L4.7 14.228a.5.5 0 0 1 .418-.226Z"/>
</svg>
