<svg xmlns="http://www.w3.org/2000/svg" fill="none" viewBox="0 0 53 54">
    <path fill="currentColor" d="M10.099 29.078c-5.4 0-9.793 4.394-9.793 9.793 0 5.4 4.394 9.793 9.793 9.793 5.4 0 9.793-4.394 9.793-9.793 0-5.4-4.394-9.793-9.793-9.793Zm0 17.41c-4.2 0-7.617-3.417-7.617-7.617s3.417-7.617 7.617-7.617 7.617 3.417 7.617 7.617-3.417 7.617-7.617 7.617Zm32.643-17.41c-5.399 0-9.793 4.394-9.793 9.793 0 5.4 4.394 9.793 9.794 9.793 5.399 0 9.793-4.394 9.793-9.793 0-5.4-4.394-9.793-9.794-9.793Zm0 17.41c-4.2 0-7.616-3.417-7.616-7.617s3.416-7.617 7.617-7.617c4.2 0 7.616 3.417 7.616 7.617s-3.416 7.617-7.617 7.617Zm-7.068-23.939-5.963-5.523c-1.27-1.286-3.26-1.336-4.56-.152l-4.217 3.353c-.633.581-1.02 1.478-1.005 2.41.013.933.429 1.819 1.136 2.428l5.356 4.6v10.292h-2.177v-9.295l-4.596-3.947a5.438 5.438 0 0 1-.124-8.143l4.218-3.355c2.108-1.928 5.419-1.843 7.482.246l5.305 4.91h7.302v2.176h-8.157Zm.54-8.705a5.447 5.447 0 0 0 5.44-5.44c0-3-2.44-5.441-5.44-5.441a5.447 5.447 0 0 0-5.44 5.44c0 3 2.439 5.441 5.44 5.441Zm0-8.705c1.8 0 3.264 1.465 3.264 3.265s-1.465 3.264-3.264 3.264a3.268 3.268 0 0 1-3.265-3.264c0-1.8 1.465-3.265 3.265-3.265Z"/>

</svg>
