<svg xmlns="http://www.w3.org/2000/svg" fill="none" viewBox="0 0 85 84">
  <path stroke="currentColor" stroke-linecap="round" stroke-linejoin="round" stroke-width="2.279" d="M32.218 63.063h20.891m-20.891 0a6.964 6.964 0 0 1-13.928 0m13.928 0a6.964 6.964 0 1 0-13.928 0m34.82 0a6.964 6.964 0 1 0 13.927 0m-13.928 0a6.964 6.964 0 1 1 13.928 0m-48.747 0h-6.964a3.482 3.482 0 0 1-3.482-3.483V17.797a3.482 3.482 0 0 1 3.482-3.482H53.11a3.482 3.482 0 0 1 3.482 3.482V57.03m10.446 6.032h10.446V43.948a6.966 6.966 0 0 0-.85-3.335L67.037 23.02H56.591m20.662 19.15H56.59"/>
</svg>
