<svg xmlns="http://www.w3.org/2000/svg" fill="none" viewBox="0 0 53 54">
    <path fill="currentColor"
        d="M52.711 37.783h-2.176V27.618c0-10.45-7.149-19.667-17.41-22.505v-2.15H20.068v2.15C9.807 7.951 2.658 17.167 2.658 27.618v10.165H.48v2.176h2.723C4.86 42.077 12.56 50.84 26.596 50.84c14.037 0 21.735-8.763 23.39-10.88h2.725v-2.177ZM48.36 27.618v10.165H33.125V7.389C42.13 10.15 48.36 18.343 48.36 27.618ZM30.949 5.139v32.644h-8.705V5.139h8.705ZM4.834 27.618c0-9.275 6.228-17.467 15.234-20.229v30.394H4.834V27.618Zm21.762 21.046c-10.792 0-17.666-5.75-20.489-8.705h40.979c-2.823 2.955-9.697 8.705-20.49 8.705Z" />
</svg>
