<svg xmlns="http://www.w3.org/2000/svg" fill="none" viewBox="0 0 54 54">
  <path fill="currentColor" d="m51.045 18.273-4.45-3.498V5.14h-2.176v7.924L30.37 2.02a5.427 5.427 0 0 0-6.725 0L2.972 18.273a5.406 5.406 0 0 0-2.078 4.276v30.468h17.41V32.342c0-1.8 1.464-3.264 3.264-3.264h10.881c1.8 0 3.265 1.465 3.265 3.264v20.675h17.41V22.549c0-1.68-.758-3.24-2.079-4.276Zm-.098 32.567H37.89V32.342c0-2.999-2.44-5.44-5.44-5.44H21.567a5.447 5.447 0 0 0-5.44 5.44V50.84H3.07V22.55a3.25 3.25 0 0 1 1.245-2.567L24.989 3.731a3.26 3.26 0 0 1 4.037 0L49.7 19.983a3.25 3.25 0 0 1 1.245 2.566l.002 28.291Z"/>
</svg>
