<svg xmlns="http://www.w3.org/2000/svg" fill="none" viewBox="0 0 54 54">
  <path fill="currentColor" d="M42.304 26.904a2.177 2.177 0 1 1-4.355-.002 2.177 2.177 0 0 1 4.355.002ZM22.716 2.964c3.6 0 6.53 2.929 6.53 6.529h2.176c0-4.801-3.905-8.706-8.706-8.706s-8.705 3.905-8.705 8.706h2.176c0-3.6 2.93-6.53 6.53-6.53Zm30.47 21.764v13.058h-3.728a16.843 16.843 0 0 1-9.33 8.7v6.535H29.244v-4.353h-6.529v4.353H11.834v-6.536A16.826 16.826 0 0 1 .952 30.713c0-3.443 1.038-6.65 2.816-9.32a6.53 6.53 0 0 1-2.816-5.371c0-3.6 2.93-6.53 6.53-6.53v2.177a4.353 4.353 0 0 0-2.392 7.99c3.094-3.56 7.654-5.813 12.73-5.813h16.322c.253 0 .503.006.755.017 1.065-5.145 5.922-6.547 8.495-6.547h1.088v10.068a17.07 17.07 0 0 1 5.435 7.343h3.27Zm-2.177 2.176h-2.653l-.245-.75a14.839 14.839 0 0 0-5.357-7.346l-.45-.325v-8.88c-1.748.303-5.004 1.413-5.4 5.524l-.104 1.097-1.095-.12a14.817 14.817 0 0 0-1.563-.082H17.82c-8.1 0-14.69 6.59-14.69 14.69a14.654 14.654 0 0 0 10.13 13.969l.752.244v5.92h6.529v-4.353h10.882v4.352h6.529v-5.92l.75-.243a14.672 14.672 0 0 0 9.037-8.395l.277-.676h2.994v-8.706Z"/>
</svg>
