<svg xmlns="http://www.w3.org/2000/svg" data-name="Layer 1" viewBox="0 0 24 24">
  <path fill="currentcolor" d="M18.272 0c-1.794 0-2.932.315-3.936.594C13.55.812 12.871 1 11.999 1S10.448.812 9.662.594C8.659.316 7.521 0 5.726 0 .065 0 0 5.67 0 5.728c0 6.466 3.332 12.899 5.837 17.176a2.237 2.237 0 0 0 4.162-1.138v-6.622c0-1.095.787-2.031 1.792-2.133a1.988 1.988 0 0 1 1.55.507c.418.379.658.92.658 1.483v6.765a2.238 2.238 0 0 0 4.163 1.138c2.506-4.276 5.837-10.708 5.837-17.176 0-.058-.065-5.728-5.728-5.728Zm-.973 22.397A1.236 1.236 0 0 1 15 21.765V15a3.01 3.01 0 0 0-.987-2.225 3.01 3.01 0 0 0-2.32-.759c-1.51.151-2.692 1.525-2.692 3.127v6.622c0 .682-.554 1.235-1.235 1.235-.439 0-.847-.23-1.065-.603C4.253 18.222 1 11.95 1 5.729 1 5.536 1.073 1 5.728 1c1.659 0 2.68.283 3.668.558C10.217 1.786 10.992 2 12 2s1.783-.215 2.604-.442c.988-.274 2.01-.558 3.668-.558C22.926 1 22.999 5.535 23 5.728c0 6.224-3.253 12.495-5.7 16.67Z"/>
</svg>
