<svg xmlns="http://www.w3.org/2000/svg" fill="none" viewBox="0 0 44 54">
  <path fill="currentColor" d="M27.958.787H5.745a5.447 5.447 0 0 0-5.44 5.44v46.79H43.83V16.66L27.958.787Zm.638 3.715 11.519 11.519h-11.52V4.502ZM2.48 50.841V6.228c0-1.8 1.465-3.265 3.264-3.265H26.42v15.234h15.233v32.644H2.481ZM9.01 22.55h26.115v2.176H9.01V22.55Zm0 8.705h26.115v2.176H9.01v-2.176Zm24.123 8.097 1.809 1.213c-.102.152-2.555 3.75-7.434 3.75-2.73 0-4.442-.94-5.952-1.77-1.46-.8-2.723-1.495-4.873-1.495h-.048c-3.504.017-5.643 2.8-5.665 2.827l-1.745-1.3c.111-.15 2.781-3.68 7.395-3.703h.059c2.71 0 4.415.935 5.924 1.762 1.466.806 2.735 1.502 4.905 1.502 3.684 0 5.55-2.672 5.625-2.786Z"/>
</svg>
