<svg xmlns="http://www.w3.org/2000/svg" fill="none" viewBox="0 0 53 54">
  <path fill="currentColor" d="M26.48.787C12.078.787.363 12.502.363 26.902c0 14.4 11.715 26.115 26.115 26.115 14.4 0 26.115-11.715 26.115-26.115C52.594 12.502 40.88.787 26.48.787Zm0 50.054c-13.2 0-23.94-10.74-23.94-23.939S13.28 2.963 26.48 2.963c13.198 0 23.938 10.74 23.938 23.94 0 13.198-10.74 23.938-23.939 23.938Zm8.704-29.38v1.089h-2.176v-1.088c0-1.8-1.465-3.265-3.264-3.265h-6.53a3.268 3.268 0 0 0-3.263 3.265 3.844 3.844 0 0 0 3.247 3.81l6.907 1.11a6.011 6.011 0 0 1 5.08 5.96c0 3.002-2.44 5.441-5.441 5.441h-2.177v4.353h-2.176v-4.353h-2.176a5.445 5.445 0 0 1-5.44-5.44v-1.088h2.176v1.088c0 1.8 1.464 3.264 3.264 3.264h6.529c1.8 0 3.264-1.465 3.264-3.264a3.844 3.844 0 0 0-3.247-3.81l-6.907-1.11a6.01 6.01 0 0 1-5.08-5.961c0-3 2.44-5.441 5.44-5.441h2.177v-4.353h2.176v4.353h2.177a5.447 5.447 0 0 1 5.44 5.44Z"/>
</svg>
