<svg width="54" height="54" viewBox="0 0 54 54" fill="none" xmlns="http://www.w3.org/2000/svg">
    <path
        d="M9.59855 29.0784H16.1273V31.2546H9.59855V29.0784ZM9.59855 39.9596H16.1273V37.7834H9.59855V39.9596ZM20.4798 39.9596H27.0086V37.7834H20.4798V39.9596ZM9.59855 13.8446H16.1273V11.6684H9.59855V13.8446ZM9.59855 22.5496H16.1273V20.3734H9.59855V22.5496ZM20.4798 31.2546H27.0086V29.0784H20.4798V31.2546ZM20.4798 13.8446H27.0086V11.6684H20.4798V13.8446ZM20.4798 22.5496H27.0086V20.3734H20.4798V22.5496ZM40.0661 39.9596H44.4186V37.7834H40.0661V39.9596ZM40.0661 22.5496H44.4186V20.3734H40.0661V22.5496ZM40.0661 31.2546H44.4186V29.0784H40.0661V31.2546ZM53.1236 17.109V53.0171H0.893555V6.22773C0.893555 3.22669 3.33531 0.787109 6.33418 0.787109H30.2729C33.2718 0.787109 35.7136 3.22669 35.7136 6.22773V11.6684H47.6829C50.6818 11.6684 53.1236 14.1079 53.1236 17.109ZM33.5373 6.22773C33.5373 4.42798 32.0727 2.96336 30.2729 2.96336H6.33418C4.53442 2.96336 3.0698 4.42798 3.0698 6.22773V50.8409H33.5373V6.22773ZM50.9473 17.109C50.9473 15.3092 49.4827 13.8446 47.6829 13.8446H35.7136V50.8409H50.9473V17.109Z"
        fill="currentcolor" />
</svg>
