<svg xmlns="http://www.w3.org/2000/svg" fill="none" viewBox="0 0 53 54">
    <path fill="currentColor"
        d="M52.71 18.196 31.472 4.406a9.003 9.003 0 0 0-9.752 0L.469 18.195l8.718 5.656V45.54c.204.204 5.438 5.301 17.41 5.301 11.971 0 17.205-5.097 17.41-5.301V23.846l6.529-4.24V44.31h2.176V18.194l-.002.002ZM41.83 44.594c-1.192.953-5.803 4.07-15.233 4.07-9.36 0-14.03-3.128-15.234-4.074V25.265l10.359 6.722a8.986 8.986 0 0 0 4.875 1.432 8.996 8.996 0 0 0 4.877-1.434L41.83 25.26v19.334ZM30.29 30.16a6.736 6.736 0 0 1-7.386 0L4.469 18.196 22.904 6.233a6.737 6.737 0 0 1 7.386 0l18.426 11.965-18.424 11.963-.002-.002Z" />

</svg>
