<svg xmlns="http://www.w3.org/2000/svg" fill="none" viewBox="0 0 40 54">
  <path fill="currentColor" d="M20.42 26.902c7.201 0 13.058-5.856 13.058-13.057C33.478 6.643 27.62.787 20.42.787S7.363 6.643 7.363 13.845c0 7.2 5.856 13.057 13.057 13.057Zm0-23.939c6 0 10.881 4.882 10.881 10.882s-4.88 10.88-10.88 10.88c-6 0-10.882-4.88-10.882-10.88 0-6 4.881-10.882 10.881-10.882Zm9.793 28.292H10.627c-5.4 0-9.793 4.393-9.793 9.793v11.97H3.01v-11.97c0-4.2 3.417-7.617 7.617-7.617h3.434l4.098 5.675-3.273 13.911h2.235l3.3-14.02 3.298 14.02h2.235l-3.273-13.91 4.1-5.676h3.432c4.2 0 7.617 3.417 7.617 7.617v11.97h2.177v-11.97c0-5.4-4.394-9.793-9.794-9.793Zm-9.793 7.264-3.676-5.088h7.352l-3.676 5.088Z"/>
</svg>
