<svg xmlns="http://www.w3.org/2000/svg" fill="none" viewBox="0 0 50 50">
  <g>
    <path fill="currentColor" d="M9.375 10.417a5.214 5.214 0 0 0 5.208-5.209A5.214 5.214 0 0 0 9.375 0a5.214 5.214 0 0 0-5.208 5.208 5.214 5.214 0 0 0 5.208 5.209Zm0-8.334A3.129 3.129 0 0 1 12.5 5.208a3.129 3.129 0 0 1-3.125 3.125A3.129 3.129 0 0 1 6.25 5.208a3.129 3.129 0 0 1 3.125-3.125ZM25 20.833a5.214 5.214 0 0 0 5.208-5.208A5.214 5.214 0 0 0 25 10.417a5.214 5.214 0 0 0-5.208 5.208A5.214 5.214 0 0 0 25 20.833Zm0-8.333a3.129 3.129 0 0 1 3.125 3.125A3.129 3.129 0 0 1 25 18.75a3.129 3.129 0 0 1-3.125-3.125A3.129 3.129 0 0 1 25 12.5Zm3.125 10.417h-6.25a5.214 5.214 0 0 0-5.208 5.208v13.542h4.166V50h2.084v-8.333h4.166V50h2.084v-8.333h4.166V28.125a5.214 5.214 0 0 0-5.208-5.208Zm3.125 16.666h-12.5V28.125A3.129 3.129 0 0 1 21.875 25h6.25a3.129 3.129 0 0 1 3.125 3.125v11.458Zm7.292-29.166a5.214 5.214 0 0 0 5.208-5.209A5.214 5.214 0 0 0 38.542 0a5.214 5.214 0 0 0-5.209 5.208 5.214 5.214 0 0 0 5.209 5.209Zm0-8.334a3.129 3.129 0 0 1 3.125 3.125 3.129 3.129 0 0 1-3.125 3.125 3.129 3.129 0 0 1-3.125-3.125 3.129 3.129 0 0 1 3.125-3.125Zm-25 10.417c.893 0 1.72.246 2.458.644a9.28 9.28 0 0 0-.352 2.268 3.105 3.105 0 0 0-2.104-.83H5.208a3.129 3.129 0 0 0-3.125 3.124v15.625H12.5v2.084H6.25v14.583H4.167V35.415H0V17.706a5.214 5.214 0 0 1 5.208-5.208l8.334.002ZM43.75 41.667V50h-2.083v-8.333H37.5v-2.084h9.933L43.35 17.148a3.121 3.121 0 0 0-3.075-2.565h-3.46c-1.007 0-1.886.507-2.46 1.265 0-.075.022-.146.022-.223 0-.806-.133-1.573-.323-2.319a5.176 5.176 0 0 1 2.76-.806h3.461a5.203 5.203 0 0 1 5.123 4.275l4.531 24.892H43.75Z"/>
  </g>
</svg>
