<svg xmlns="http://www.w3.org/2000/svg" fill="none" viewBox="0 0 55 55">
  <path stroke="currentColor" stroke-linecap="round" stroke-linejoin="round" stroke-width="1.5" d="M30.962 31.997c5.094 1.934 11.158.78 15.357-3.419 4.46-4.459 5.152-11.352 2.694-16.622l-9.95 9.95-5.969-5.97 9.95-9.95C37.773 3.529 30.88 4.222 26.42 8.68c-4.199 4.2-5.352 10.264-3.419 15.358m-.107.107L6.232 40.808a5.628 5.628 0 1 0 7.96 7.96l16.663-16.664m-2.21 3.417L42.5 49.168a4.79 4.79 0 0 0 6.772-6.772l-9.167-9.167M4.584 4.583 21.77 21.771"/>
</svg>
