<svg xmlns="http://www.w3.org/2000/svg" fill="none" viewBox="0 0 55 55">
  <path stroke="currenTColor" stroke-linecap="round" stroke-linejoin="round" stroke-width="1.5" d="M33.964 11.458c5.706-2.779 10.724-4.11 10.724-4.11s6.663 24.64-4.698 33.675c-2.03 1.616-4.143 2.666-6.223 3.217M28 45.833c.763 1.696 2.4 3.204 4.91 4.094 7.504 2.66 17.508-6.385 17.508-6.385s-3.422-3.095-7.765-5.131m-30.048-.119c-4.463 2.033-8.02 5.25-8.02 5.25s10.004 9.045 17.507 6.385c2.486-.882 4.116-2.37 4.888-4.046m-5.943-34.423c-5.706-2.779-10.724-4.11-10.724-4.11S3.65 31.987 15.01 41.022c2.036 1.62 4.153 2.67 6.236 3.22M27.5 4.583S9.409 22.591 14.73 36.096c5.115 12.983 20.425 12.983 25.54 0C45.593 22.591 27.5 4.583 27.5 4.583Z"/>
</svg>
