<svg width="56" height="55" viewBox="0 0 56 55" fill="none" xmlns="http://www.w3.org/2000/svg">
    <path
        d="M27.9997 6.87498C39.8829 6.87498 49.7666 15.9195 50.9164 27.5C49.5283 27.1416 47.7695 27.1372 46.1071 27.2946C41.6922 27.7122 37.7656 30.5456 37.1664 33.2291M27.9997 6.87498C16.1167 6.87498 6.34606 15.9195 5.19629 27.5M27.9997 6.87498C33.4486 12.88 37.1664 24.3735 37.1664 33.2291M27.9997 6.87498C22.5511 12.88 18.8331 24.3735 18.8331 33.2291M27.9997 6.87498V4.58331M37.1664 33.2291C35.908 30.5589 31.9911 27.5 27.9997 27.5M18.8331 33.2291C18.2339 30.5456 14.492 27.7122 10.0769 27.2946C8.41473 27.1372 6.65583 27.1416 5.26761 27.5M18.8331 33.2291C20.0915 30.5589 24.0085 27.5 27.9997 27.5M27.9997 27.5V44.6875C27.9997 47.8516 25.4349 50.4166 22.2706 50.4166C19.1065 50.4166 16.5415 47.8516 16.5415 44.6875V43.5416"
        stroke="currentColor" stroke-width="1.5" stroke-linecap="round" stroke-linejoin="round" />
</svg>
