<svg xmlns="http://www.w3.org/2000/svg" fill="none" viewBox="0 0 133 133">
    <path fill="currentColor"
        d="M96.474 5.799A35.225 35.225 0 0 0 66.203 23.96 35.225 35.225 0 0 0 35.932 5.8 37.426 37.426 0 0 0 .157 44.6c0 37.289 60.3 80.356 62.864 82.183l3.182 2.252 3.18-2.252c2.566-1.816 62.865-44.894 62.865-82.183A37.426 37.426 0 0 0 96.474 5.8ZM66.203 115.484C48.299 102.11 11.165 69.252 11.165 44.601a26.418 26.418 0 0 1 24.767-27.795A26.418 26.418 0 0 1 60.699 44.6h11.008a26.418 26.418 0 0 1 24.767-27.794A26.419 26.419 0 0 1 121.24 44.6c0 24.663-37.134 57.51-55.038 70.884Z" />

</svg>
