<svg xmlns="http://www.w3.org/2000/svg" fill="none" viewBox="0 0 40 41">
  <path fill="currentColor" d="M20 4.205c5.34 0 5.973.02 8.082.117 2.18.1 4.425.596 6.013 2.185 1.603 1.603 2.085 3.826 2.185 6.013.097 2.108.117 2.742.117 8.082 0 5.34-.02 5.973-.117 8.081-.098 2.169-.607 4.435-2.185 6.014-1.603 1.603-3.825 2.085-6.013 2.185-2.109.096-2.742.116-8.082.116-5.34 0-5.973-.02-8.082-.116-2.151-.099-4.448-.619-6.013-2.185-1.595-1.595-2.085-3.84-2.185-6.014-.097-2.108-.117-2.741-.117-8.081s.02-5.974.117-8.082c.098-2.16.612-4.44 2.185-6.013 1.6-1.6 3.832-2.085 6.013-2.185 2.109-.097 2.742-.117 8.082-.117Zm0-3.603c-5.432 0-6.113.023-8.247.12-3.091.141-6.161 1.001-8.396 3.236C1.113 6.202.262 9.265.12 12.355.023 14.488 0 15.17 0 20.602c0 5.431.023 6.113.12 8.246.142 3.089 1.005 6.167 3.237 8.397 2.241 2.242 5.31 3.095 8.396 3.237 2.134.096 2.815.12 8.247.12s6.113-.024 8.247-.12c3.09-.142 6.163-1.004 8.396-3.237 2.245-2.245 3.095-5.307 3.237-8.397.097-2.133.12-2.815.12-8.246 0-5.432-.023-6.114-.12-8.247-.142-3.092-1.003-6.163-3.237-8.397C34.405 1.72 31.328.862 28.247.722 26.113.625 25.432.602 20 .602Z"/>
  <path fill="currentColor" d="M20 10.332c-5.671 0-10.27 4.598-10.27 10.27S14.33 30.872 20 30.872c5.672 0 10.27-4.598 10.27-10.27S25.672 10.332 20 10.332Zm0 16.937a6.667 6.667 0 1 1 .001-13.334 6.667 6.667 0 0 1 0 13.334ZM30.677 12.325a2.4 2.4 0 1 0 0-4.8 2.4 2.4 0 0 0 0 4.8Z"/>
</svg>
