<svg xmlns="http://www.w3.org/2000/svg" fill="none" viewBox="0 0 53 54">
  <path fill="currentColor" d="m43.496.837-15.868 4.11V.786H25.45v4.725L9.422 9.662.508 30.834l-.085 1.511c0 5.4 4.394 9.794 9.794 9.794s9.793-4.394 9.793-9.794v-1.088l-8.307-19.938 13.748-3.56v43.085H9.128v2.177h34.823v-2.177H27.628V7.197l13.254-3.433-7.726 18.367-.085 1.51c0 5.4 4.394 9.794 9.794 9.794s9.794-4.394 9.794-9.794v-1.088L43.496.837Zm-33.28 39.125c-3.83 0-7.01-2.842-7.538-6.529h15.078c-.53 3.687-3.709 6.53-7.54 6.53Zm-7.525-8.705 7.526-17.873 7.526 17.873H2.69ZM42.813 4.783l7.571 17.768H35.337l7.476-17.768Zm.05 26.474c-3.83 0-7.01-2.843-7.54-6.53h15.081c-.529 3.687-3.71 6.53-7.541 6.53Z"/>
</svg>
