<svg xmlns="http://www.w3.org/2000/svg" fill="none" viewBox="0 0 40 41">
  <path fill="currentColor" d="M34.083 34.684h-5.927v-9.281c0-2.214-.04-5.062-3.083-5.062-3.087 0-3.56 2.41-3.56 4.902v9.442h-5.925V15.596h5.69v2.608h.08a6.239 6.239 0 0 1 5.613-3.083c6.008 0 7.114 3.952 7.114 9.09l-.002 10.474ZM8.9 12.986a3.439 3.439 0 1 1 0-6.879 3.439 3.439 0 1 1 0 6.88Zm2.962 21.698H5.93V15.596h5.933v19.088ZM37.037.605H2.951A2.92 2.92 0 0 0 0 3.488v34.226A2.92 2.92 0 0 0 2.95 40.6h34.087A2.926 2.926 0 0 0 40 37.714V3.486A2.926 2.926 0 0 0 37.037.602"/>
</svg>
