<svg xmlns="http://www.w3.org/2000/svg" fill="none" viewBox="0 0 50 50">
  <path fill="currentColor" d="m24.998 34.981 10.31-10.085a14.49 14.49 0 0 0 4.274-10.313c0-3.896-1.519-7.556-4.273-10.312A14.48 14.48 0 0 0 24.999 0a14.489 14.489 0 0 0-10.313 4.27C9 9.957 9 19.209 14.694 24.903l10.304 10.08Zm-8.84-29.237a12.426 12.426 0 0 1 8.84-3.66c3.338 0 6.477 1.3 8.838 3.66a12.412 12.412 0 0 1 3.662 8.84c0 3.339-1.3 6.476-3.654 8.83l-8.846 8.655-8.84-8.646c-4.872-4.873-4.872-12.806 0-17.68Zm8.84 15.048a6.237 6.237 0 0 0 6.23-6.23 6.237 6.237 0 0 0-6.23-6.229 6.237 6.237 0 0 0-6.229 6.23A6.237 6.237 0 0 0 25 20.791Zm0-10.375a4.15 4.15 0 0 1 4.146 4.146 4.151 4.151 0 0 1-4.146 4.145 4.151 4.151 0 0 1-4.145-4.145 4.151 4.151 0 0 1 4.145-4.146ZM49.88 35.096 24.998 50.025.118 35.095l11.8-7.078 1.63 1.596-9.38 5.483L25 47.596l20.834-12.5-9.338-5.53 1.586-1.55 11.802 7.082-.004-.002Z"/>
</svg>
