<svg xmlns="http://www.w3.org/2000/svg" id="svg5" version="1.1" viewBox="0 0 28.575 8.202">
  <g transform="translate(-194.244 -213.458)">
    <g fill="currentColor" clip-path="none" transform="matrix(.26458 0 0 .26458 194.244 213.458)">
      <path id="path9" d="M30.643 25.602h30.072c.518 0 .519 0 .518.53-.003 1.16-.016 2.32-.004 3.478.003.298-.114.373-.373.372-4.268-.003-8.535-.005-12.802-.003-1.278 0-2.556-.02-3.834-.02-8.513-.002-17.027-.002-25.54 0-6.053.003-12.105.01-18.156.02-.524 0-.528 0-.523-.538.011-1.191.03-2.382.038-3.573.002-.21.065-.274.278-.274 10.109.006 20.218.008 30.326.005zM17.148 12.591l-5.437 11.436-.11.009-5.595-11.538c-.088.536-.167.976-.232 1.418-.451 3.048-.901 6.097-1.35 9.146-.1.676-.388.965-1.046.975-1.013.015-2.028.001-3.042.007-.246.001-.302-.091-.259-.338A16186.18 16186.18 0 0 0 3.742 3.082c.166-.937.333-1.873.502-2.81A.507.507 0 0 1 4.387 0l7.267 15.35L18.914.027l.091.005c.06.297.126.593.181.891 1.054 5.774 2.106 11.547 3.158 17.322.278 1.52.557 3.041.831 4.562.123.686-.247 1.192-.923 1.21-.98.028-1.963.015-2.945.028-.229.003-.32-.108-.354-.321-.361-2.351-.724-4.702-1.089-7.053L17.24 12.6l-.09-.009Zm86.121.615c1.183 0 2.366.002 3.549 0 .779-.002 1.171.386 1.173 1.192.006 2.286.004 4.572.009 6.858 0 .407-.193.69-.498.926-1.181.915-2.527 1.458-3.937 1.869-2.326.677-4.632.647-6.837-.396-3.296-1.559-5.164-4.205-5.604-7.94-.505-4.316 2.443-9.433 7.761-10.373 3.139-.555 5.918.196 8.381 2.241.09.075.207.14.255.239.05.103.089.282.036.355a41.596 41.596 0 0 1-1.437 1.898c-.342.42-.826.46-1.285.16-.267-.174-.519-.373-.787-.543-1.759-1.131-3.63-1.468-5.587-.663-2.014.828-3.128 2.457-3.58 4.59-.813 3.829 1.707 6.831 4.945 7.37 1.289.214 2.516-.102 3.688-.66a5.77 5.77 0 0 0 .227-.116c.923-.509.726-.293.74-1.273.009-.639-.025-1.278-.011-1.916.006-.305-.105-.4-.386-.397-1.458.014-2.915.019-4.372.024-.48.002-.488-.016-.49-.514-.002-.845-.007-1.69-.022-2.534-.005-.293.101-.397.394-.394 1.225.014 2.45.006 3.675.006v-.01zM62.706 24.334c.255.232.463.423.673.612 1.366 1.23 2.913 2.097 4.704 2.472 1.008.21 1.992.098 2.96-.251 1.965-.711 2.37-3.006 1.539-4.514a4.512 4.512 0 0 0-1.321-1.47c-1.014-.74-2.064-1.43-3.073-2.175-1.18-.874-2.362-1.747-3.491-2.688-1.523-1.27-2.092-2.99-2.024-4.96.105-3.04 2.085-5.426 5.096-6.14 1.83-.433 3.62-.236 5.397.339.68.22 1.389.346 2.09.488.25.052.194.22.195.367.004 1.278.002 2.556.002 3.835v.548c-.3-.226-.542-.41-.786-.59-1.078-.794-2.205-1.487-3.526-1.767-1.227-.259-2.433-.274-3.577.354-.81.445-1.335 1.102-1.492 2.053-.089.534.039 1.01.303 1.458.42.717.98 1.339 1.643 1.827a73.4 73.4 0 0 0 3.052 2.145c1.241.828 2.462 1.676 3.523 2.744 1.143 1.15 1.725 2.566 1.903 4.178.145 1.311.087 2.608-.465 3.818-.937 2.055-2.553 3.273-4.688 3.745-1.875.414-3.736.276-5.557-.349a7.54 7.54 0 0 0-2.613-.422c-.48.01-.481.012-.482-.498v-4.841c0-.082.007-.164.015-.318z"/>
      <path id="path11" d="M79.68 16.63a6.394 6.394 0 0 0 1.032 2.11c1.787 2.38 4.88 2.985 7.568 1.455.558-.318 1.064-.737 1.58-1.126.28-.211.409-.214.607.051.416.56.836 1.115 1.253 1.674.412.552.337 1.189-.205 1.595-3.842 2.88-9.397 2.974-13.2-.934-1.58-1.624-2.353-3.635-2.573-5.893-.476-4.888 3.247-9.746 8.458-10.29 3.01-.314 5.65.544 7.954 2.54.172.148.175.257.042.427-.457.582-.896 1.178-1.355 1.758-.46.58-.875.63-1.477.187-.829-.61-1.701-1.113-2.708-1.36-3.06-.751-6.023.981-6.936 4.073-.017.06-.025.123-.047.229.128.014.237.036.345.035 2.123-.001 4.246-.005 6.368-.012.27 0 .404.06.4.38-.01.627.03 1.254.032 1.882.002.805-.306 1.178-1.094 1.192-1.858.034-3.717.022-5.576.028h-.468Zm-43.19-4.162c0 1.7.023 3.402-.009 5.1-.016.873-.04 1.764-.22 2.611-.357 1.68-1.433 2.837-2.91 3.555-2.133 1.037-4.322 1.047-6.456.02-1.784-.858-2.718-2.405-3.002-4.376a11.054 11.054 0 0 1-.097-1.553c-.008-3.987-.01-7.975-.005-11.962 0-.481 0-.482.472-.485.833-.007 1.668-.018 2.503-.018.49 0 .49.008.49.506 0 3.955-.004 7.91.008 11.865a6.4 6.4 0 0 0 .16 1.38c.236 1.058.901 1.696 1.943 1.879 1.029.181 2.032.159 2.843-.658.475-.48.64-1.111.73-1.761.054-.397.081-.797.081-1.198.006-3.835.007-7.67.004-11.506 0-.48.03-.509.505-.509h2.5c.399 0 .438.04.438.444v6.664l.023.002zm39.454 17.547c.29-.354.59-.699.868-1.063.62-.81.87-1.768 1.011-2.763.083-.586.076-.587.67-.587h24.843c1.372 0 2.745-.015 4.117-.02.516-.002.538.048.528.583-.016.834-.025 1.669.004 2.502.031.842-.367 1.312-1.194 1.313-2.789.003-5.577.003-8.366 0-3.062-.004-6.125-.018-9.188-.02-4.342-.003-8.683-.003-13.024 0h-.368ZM48.925 16.406V9.258c0-.444-.018-.463-.442-.463h-4.086c-.39 0-.417-.035-.415-.418.004-.866.011-1.733-.005-2.599-.006-.31.097-.422.4-.422 4.044.006 8.088.006 12.133 0 .283 0 .405.102.403.395-.006.682.016 1.365-.003 2.045-.017.637-.39.994-1.012.997-1.003.005-2.007.001-3.01.002-.42 0-.443.022-.443.46v13.42c0 .13.002.26-.01.388-.062.627-.398.96-1.013.973-.707.014-1.413-.008-2.12.01-.317.007-.392-.131-.39-.428.011-2.329.011-4.657.015-6.986a11.28 11.28 0 0 1-.002-.226ZM37.8 14.678V7.853c0-.672-.016-1.343-.019-2.015-.002-.431.048-.477.478-.477h2.533c.461 0 .496.036.496.525l-.021 12.092c-.002.758.01 1.517-.006 2.275-.005.283.08.373.361.37 1.891-.01 3.782-.005 5.673-.005.502 0 .501 0 .5.498v1.657c.003.853-.403 1.271-1.246 1.269-1.32-.004-2.64-.02-3.96-.02-1.448 0-2.895.015-4.343.02-.425.001-.467-.045-.467-.49v-8.873h.021Zm20.052.035c0-1.56.003-3.118 0-4.677-.003-1.397-.015-2.793-.02-4.19-.001-.447.039-.486.465-.486.865 0 1.73.007 2.595-.004.287-.004.388.109.388.403-.005 5.707-.007 11.414-.005 17.12 0 .765-.395 1.162-1.133 1.163h-1.899c-.378 0-.411-.031-.41-.43.003-1.44.014-2.88.016-4.32.004-1.526 0-3.052 0-4.579z"/>
    </g>
  </g>
</svg>
