<svg xmlns="http://www.w3.org/2000/svg" fill="none" viewBox="0 0 75 74">
    <path fill="currentColor"
        d="M74.5 24.667c0 4.903-1.776 10.172-5.35 15.876-.465-1.11-1.048-2.176-1.794-3.154 2.645-4.606 4.06-8.87 4.06-12.722 0-9.681-8.08-18.5-16.958-18.5-7.258 0-10.973 2.859-14.439 6.04L26.79 25.307c-1.817 1.816-2.156 4.628-.78 6.536.872 1.212 2.155 1.943 3.613 2.06a4.933 4.933 0 0 0 3.867-1.418l14.325-14.508 2.192 2.165-5.19 5.254L61.34 39.899c2.973 2.605 3.719 6.96 1.736 10.129a7.788 7.788 0 0 1-5.473 3.598 7.53 7.53 0 0 1-2.17.012c.4 1.9.114 3.904-.931 5.578a7.791 7.791 0 0 1-5.477 3.598c-1.07.158-2.14.09-3.15-.188.123 1.585-.22 3.188-1.086 4.567a7.789 7.789 0 0 1-6.605 3.681 7.743 7.743 0 0 1-5.115-1.927l-9.993-8.966C7.885 46.254.5 34.704.5 24.667.5 13.17 9.867 3.084 20.542 3.084c5.414 0 9.151 1.428 12.145 3.37L30.43 8.69c-2.507-1.495-5.56-2.522-9.888-2.522-8.874 0-16.959 8.819-16.959 18.5 0 8.988 7.252 20.1 21.556 33.026l9.975 8.95a4.675 4.675 0 0 0 3.755 1.102c1.378-.2 2.556-.978 3.308-2.183 1.19-1.9.694-4.558-1.156-6.18l-10.286-9.777 2.121-2.238 11.998 11.325a4.618 4.618 0 0 0 3.724 1.076c1.379-.2 2.556-.977 3.312-2.183 1.187-1.896.69-4.554-1.16-6.176L39.277 41.04l2.06-2.293 12.059 10.733a4.679 4.679 0 0 0 3.761 1.104c1.379-.204 2.553-.978 3.309-2.183 1.187-1.9.69-4.557-1.16-6.176L42.646 27.6l-6.971 7.06a7.982 7.982 0 0 1-5.655 2.347c-2.562 0-5.128-1.428-6.515-3.358-2.248-3.12-1.773-7.643 1.107-10.523L37.889 9.984c3.817-3.508 8.204-6.894 16.566-6.894 10.678 0 20.042 10.086 20.042 21.584l.003-.007Z" />

</svg>
