<svg xmlns="http://www.w3.org/2000/svg" fill="none" viewBox="0 0 54 54">
    <path fill="currentColor" d="M49.086 11.668a2.832 2.832 0 0 1-2.548-1.575 5.001 5.001 0 0 0-4.494-2.777h-1.92V.787h-1.088a5.448 5.448 0 0 0-5.44 5.44v3.822l-2.94 8.148-17.741.009a7.567 7.567 0 0 0-5.582 2.435c-1.25-.877-4.211-3.53-4.211-8.975H.945c0 6.424 3.51 9.624 5.147 10.764a7.582 7.582 0 0 0-.794 3.395l.006 27.2H16.18V39.958l15.24-.006v13.066h10.888l-.017-12.861 2.842-15.43h2.61a5.448 5.448 0 0 0 5.44-5.44v-7.618h-4.096Zm1.92 7.617c0 1.8-1.465 3.265-3.265 3.265H43.32l-3.188 17.41v10.88h-6.535V37.773l-19.593.011V50.85H7.48l-.007-25.025c0-1.454.566-2.82 1.593-3.85a5.407 5.407 0 0 1 3.85-1.593l19.268-.009 3.524-9.765.065-4.38c0-1.42.91-2.63 2.176-3.08v6.344h4.096c1.086 0 2.063.603 2.548 1.576a5 5 0 0 0 4.494 2.777h1.92l-.002 5.44Z"/>
</svg>
