<svg xmlns="http://www.w3.org/2000/svg" fill="none" viewBox="0 0 56 41">
  <path fill="currentColor" d="M.5 9.629v13.444h18.333v2.241c0 6.207-7.52 11.204-13.75 11.204v4.481c8.654 0 18.334-6.708 18.334-15.685V.666H9.667C4.61.666.5 4.686.5 9.629Zm18.333 8.963H5.083V9.629c0-2.474 2.058-4.481 4.584-4.481h9.166v13.444Zm13.75-8.963v13.444h18.334v2.241c0 6.207-7.526 11.204-13.75 11.204v4.481C45.825 41 55.5 34.291 55.5 25.314V.666H41.75c-5.055 0-9.167 4.02-9.167 8.963Zm18.334 8.963h-13.75V9.629c0-2.474 2.053-4.481 4.583-4.481h9.167v13.444Z"/>
</svg>
