<svg xmlns="http://www.w3.org/2000/svg" fill="none" viewBox="0 0 54 54">
  <path fill="currentColor" d="m24.205 20.719.629.444.629-.444c.418-.296 10.253-7.324 10.253-13.457 0-3.572-2.684-6.475-5.985-6.475-2.094 0-3.841.916-4.897 2.407-1.056-1.49-2.803-2.407-4.897-2.407-3.302 0-5.985 2.903-5.985 6.475 0 6.133 9.835 13.16 10.253 13.457ZM19.937 2.964c2.242 0 3.809 1.567 3.809 3.808v.544h2.176v-.544c0-2.241 1.567-3.808 3.809-3.808 2.1 0 3.809 1.928 3.809 4.298 0 3.856-5.792 9.023-8.706 11.22-2.914-2.199-8.706-7.364-8.706-11.22 0-2.37 1.709-4.298 3.81-4.298ZM51.345 21.8c-1.082-.983-2.486-1.467-3.937-1.419-1.459.07-2.804.701-3.785 1.78L35.5 31.09a5.76 5.76 0 0 0-5.535-4.183H6.335a5.447 5.447 0 0 0-5.441 5.441v15.235a5.447 5.447 0 0 0 5.44 5.441h24.43l20.977-23.544c1.985-2.223 1.809-5.668-.396-7.677V21.8Zm-1.228 6.23-20.33 22.814H6.335A3.269 3.269 0 0 1 3.07 47.58V32.345c0-1.8 1.465-3.265 3.265-3.265h23.629a3.58 3.58 0 0 1 3.576 3.574c0 1.767-1.32 3.289-3.054 3.537l-12.32 1.604.28 2.157 12.336-1.607c2.222-.317 4.013-1.91 4.668-3.97l9.786-10.75c.59-.65 1.399-1.03 2.276-1.072.875-.03 1.72.261 2.368.856a3.3 3.3 0 0 1 .237 4.62Z"/>
</svg>
