<svg xmlns="http://www.w3.org/2000/svg" fill="none" viewBox="0 0 75 74">
  <path fill="currentColor" d="m37.436 73.957-1.93-.965c-6.765-3.383-28.842-16-28.842-36.384V15.83 27c0-14.497 2.121-17.439 5.282-18.484L37.497.043 63.05 8.516a7.701 7.701 0 0 1 5.282 7.317v20.775c0 23.122-22.114 33.818-28.891 36.544l-2.004.805Zm.061-70.664-24.58 8.15a4.618 4.618 0 0 0-3.17 4.39v20.775c0 18.617 20.77 30.445 27.137 33.627l.69.345.716-.286C44.614 67.75 65.247 57.8 65.247 36.61V15.83a4.622 4.622 0 0 0-3.166-4.391L37.497 3.293Z"/>
  <path fill="currentColor" d="M32.877 46.25a4.618 4.618 0 0 1-3.274-1.353l-10.138-9.873 2.149-2.211 10.153 9.888a1.55 1.55 0 0 0 2.196.016l19.41-19.145 2.167 2.196-19.404 19.138a4.596 4.596 0 0 1-3.259 1.347v-.003Z"/>
</svg>
