<svg xmlns="http://www.w3.org/2000/svg" fill="none" viewBox="0 0 53 54">
  <path fill="currentColor" d="M50.751 21.81a5.477 5.477 0 0 0-3.939-1.415 5.384 5.384 0 0 0-3.786 1.785l-8.118 8.922a5.731 5.731 0 0 0-5.528-4.178H5.746c-2.981-.022-5.44 2.416-5.44 5.419v15.233a5.443 5.443 0 0 0 5.44 5.441h24.44L51.165 29.47c1.98-2.22 1.806-5.658-.392-7.682l-.022.022Zm-1.219 6.224L29.206 50.84H5.746a3.26 3.26 0 0 1-3.264-3.264V32.343a3.26 3.26 0 0 1 3.264-3.265H29.38c1.98 0 3.57 1.61 3.57 3.57 0 1.762-1.328 3.285-3.047 3.525l-12.318 1.61.283 2.155 12.34-1.61c2.22-.327 4.004-1.916 4.678-3.961l9.793-10.751a3.24 3.24 0 0 1 2.285-1.066c.85-.022 1.72.26 2.373.848 1.327 1.219 1.436 3.287.239 4.614l-.044.022ZM9.011 17.327V16.02h2.176v1.306a3.056 3.056 0 0 0 3.047 3.046h4.81a3.056 3.056 0 0 0 3.046-3.046 3.055 3.055 0 0 0-2.546-3.004l-6.16-1.023a5.191 5.191 0 0 1-4.352-5.135 5.206 5.206 0 0 1 5.223-5.202h1.306V.787h2.176v2.176h1.306c2.873 0 5.223 2.329 5.223 5.202v1.327H22.09V8.165c0-1.676-1.371-3.025-3.047-3.025h-4.81c-1.675 0-3.046 1.37-3.046 3.025a3.055 3.055 0 0 0 2.546 3.003l6.159 1.023a5.19 5.19 0 0 1 4.352 5.136 5.224 5.224 0 0 1-5.223 5.223h-1.305v2.176h-2.177V22.55h-1.305a5.224 5.224 0 0 1-5.223-5.223Z"/>
</svg>
