<svg xmlns="http://www.w3.org/2000/svg" fill="none" viewBox="0 0 46 47">
  <path fill="currentColor" d="M26.833 2.518V.602C37.402.602 46 9.2 46 19.768h-1.917c0-9.51-7.74-17.25-17.25-17.25Zm9.584 17.25h1.916c0-6.342-5.157-11.5-11.5-11.5v1.917c5.285 0 9.584 4.299 9.584 9.583Zm-2.824 7.354 10.885 10.885-5.518 5.518c-1.98 1.984-4.661 3.077-7.553 3.077C17.611 46.602 0 28.992 0 15.193 0 12.301 1.093 9.62 3.076 7.64L8.594 2.12 19.48 13.006l-6.465 6.465c2.887 6.822 7.512 11.45 14.107 14.124l6.472-6.473Zm8.175 10.885-8.175-8.174-5.999 6-.58-.222C19.5 32.744 14.11 27.358 10.995 19.603l-.236-.588 6.009-6.009-8.175-8.174-4.163 4.163c-1.621 1.617-2.514 3.82-2.514 6.198 0 12.679 16.813 29.492 29.491 29.492 2.379 0 4.58-.893 6.197-2.515l4.163-4.163Z"/>
</svg>
