<svg xmlns="http://www.w3.org/2000/svg" id="Camada_1" data-name="Camada 1" viewBox="0 0 1302.82 424.14"><defs><style>.cls-1{fill:#355ec0}</style></defs><path d="M351.39 212.22a10.82 10.82 0 0 1 8.83 17.09L250.85 418.73a10.77 10.77 0 0 1-14.71 4 10.66 10.66 0 0 1-4-4.08L122.29 228.41a10.78 10.78 0 0 1 9.34-16.15L241.5 239ZM230.74 2.87a21.51 21.51 0 0 0-8.07 8.13L2.87 391.74a21.57 21.57 0 0 0 18.69 32.31v.09h439.85a21.66 21.66 0 0 0 17.66-34.2L260.18 10.82a21.56 21.56 0 0 0-29.44-7.95M609.71 212.22v38.18h84.76v173.74h42.71V250.4h84.77v-38.18H609.71zM907 364.93v-93.5c0-12.62 8.41-21 21-21h84.77c12.62 0 21.36 8.41 21.36 21v8.41h42.38v-4.21c0-38.17-25.56-63.41-63.74-63.41h-84.71c-38.17 0-63.41 25.24-63.41 63.41v84.77c0 38.18 25.24 63.74 63.41 63.74h84.77c38.18 0 63.74-25.56 63.74-63.74v-59.21H971.42v38.18h62.77v25.56c0 12.62-8.74 21-21.36 21h-84.77c-12.61 0-21-8.41-21-21M1119.27 212.22v211.92h183.55v-38.18h-141.16V212.22h-42.39z" class="cls-1"/></svg>
