<svg xmlns="http://www.w3.org/2000/svg" xml:space="preserve" id="svg250" version="1.1" viewBox="0 0 76.762 25.015">
  <g id="g256" transform="matrix(3.77953 0 0 3.77953 -46.97 -900.23)">
    <path id="path9" fill="currentColor" stroke-width=".265" d="M17.89 241.484c.37.196-.111.585-.205.859l-1.363 2.362c-.372.198-.457-.402-.655-.63l-1.35-2.338c.02-.462.563-.093.851-.08.364.061.728.231 1.091.225l1.63-.398zm-1.881-3.265c-.365.432-.59.98-.896 1.46l-2.658 4.605c-.178.628.557.497.932.505h6.219c.626-.126.162-.73-.024-1.052l-3.114-5.394-.204-.157-.256.033zm5.909 3.265c.053.217-.153.693.214.595h1.108v2.71c.2-.064.671.142.666-.128v-2.581h1.322c-.053-.217.153-.693-.214-.596h-3.096zm4.636 2.382c.015-.53-.03-1.066.024-1.593.226-.329.686-.145 1.03-.193.333.03.93-.142.929.37.045.205.468.032.66.089.08-.627-.512-1.15-1.122-1.055-.561.035-1.15-.089-1.686.11-.643.32-.472 1.104-.495 1.69-.025.532-.021 1.224.583 1.433.598.136 1.225.05 1.837.067.613-.011.97-.642.884-1.203-.052-.212.108-.638-.085-.71h-1.554c.053.217-.154.693.213.596.241.028.596-.057.766.043.086.398-.142.794-.59.683-.4-.012-.804.027-1.2-.023-.124-.044-.198-.177-.193-.304m3.31-2.382v3.305h2.861c-.052-.217.154-.693-.213-.595h-1.988v-2.71h-.66z"/>
  </g>
</svg>
