<svg xmlns="http://www.w3.org/2000/svg" fill="none" viewBox="0 0 474 361">
  <g fill="currentcolor">
    <path d="M161.073 197.906c54.558 0 98.948-44.39 98.948-98.953C260.021 44.389 215.64 0 161.073 0c-54.567 0-98.934 44.39-98.934 98.953s44.385 98.953 98.934 98.953Zm0-184.097c46.961 0 85.144 38.187 85.144 85.153 0 46.965-38.183 85.152-85.144 85.152-46.961 0-85.144-38.187-85.144-85.152 0-46.966 38.209-85.153 85.144-85.153ZM421.078 267.125h-23.006a6.899 6.899 0 0 0-4.994 1.959 6.913 6.913 0 0 0-2.084 4.943c0 .922.185 1.834.542 2.683a6.9 6.9 0 0 0 6.536 4.22h23.011a39.153 39.153 0 0 1 27.646 11.471 39.168 39.168 0 0 1 11.468 27.651V412.1a6.904 6.904 0 1 0 13.807 0v-92.048a52.98 52.98 0 0 0-52.926-52.927ZM377.483 35.404A99.489 99.489 0 0 0 323.868.215a6.905 6.905 0 0 0-7.659 10.206 6.906 6.906 0 0 0 4.227 3.173 85.147 85.147 0 0 1 63.987 82.482c0 18.9-6.288 37.264-17.872 52.197a85.139 85.139 0 0 1-46.115 30.284 6.91 6.91 0 0 0-5.193 7.558 6.9 6.9 0 0 0 6.892 6.049 6.76 6.76 0 0 0 1.716-.215 98.932 98.932 0 0 0 69.081-63.79 98.957 98.957 0 0 0-15.449-92.755ZM283.017 267.125H52.921A52.985 52.985 0 0 0 0 320.052V412.1a6.905 6.905 0 0 0 11.785 4.882 6.905 6.905 0 0 0 2.022-4.882v-92.048a39.166 39.166 0 0 1 11.468-27.651A39.154 39.154 0 0 1 52.92 280.93h230.096a39.162 39.162 0 0 1 39.127 39.122V412.1a6.905 6.905 0 0 0 13.808 0v-92.048a52.983 52.983 0 0 0-52.935-52.927Z"/>
  </g>

</svg>
