<svg xmlns="http://www.w3.org/2000/svg" fill="none" viewBox="0 0 74 74">
  <path fill="currentColor" d="M24.667 40.083c0 6.802 5.531 12.334 12.333 12.334 6.802 0 12.333-5.532 12.333-12.334 0-6.801-5.531-12.333-12.333-12.333-6.802 0-12.333 5.532-12.333 12.333ZM37 30.833c5.1 0 9.25 4.15 9.25 9.25s-4.15 9.25-9.25 9.25-9.25-4.15-9.25-9.25 4.15-9.25 9.25-9.25Zm18.5-6.166c6.802 0 12.333-5.532 12.333-12.334C67.833 5.532 62.302 0 55.5 0c-6.802 0-12.333 5.532-12.333 12.333 0 6.802 5.531 12.334 12.333 12.334Zm0-21.584c5.1 0 9.25 4.15 9.25 9.25s-4.15 9.25-9.25 9.25-9.25-4.15-9.25-9.25 4.15-9.25 9.25-9.25ZM74 38.542v7.708h-3.083v-7.708a4.63 4.63 0 0 0-4.625-4.625H54.424a18.287 18.287 0 0 0-1.422-3.084H66.29c4.251 0 7.711 3.457 7.711 7.709Zm-18.5 27.75V74h-3.083v-7.708a4.63 4.63 0 0 0-4.625-4.625H26.208a4.63 4.63 0 0 0-4.625 4.625V74H18.5v-7.708c0-4.252 3.456-7.709 7.708-7.709h21.584c4.252 0 7.708 3.457 7.708 7.709Zm-37-41.625c6.802 0 12.333-5.532 12.333-12.334C30.833 5.532 25.302 0 18.5 0 11.698 0 6.167 5.532 6.167 12.333c0 6.802 5.531 12.334 12.333 12.334Zm0-21.584c5.1 0 9.25 4.15 9.25 9.25s-4.15 9.25-9.25 9.25-9.25-4.15-9.25-9.25 4.15-9.25 9.25-9.25ZM7.708 33.917a4.63 4.63 0 0 0-4.625 4.625v7.708H0v-7.708c0-4.252 3.456-7.709 7.708-7.709h13.286a18.533 18.533 0 0 0-1.421 3.084H7.708Z"/>
</svg>
