<svg width="53" height="54" viewBox="0 0 53 54" fill="none" xmlns="http://www.w3.org/2000/svg">
    <path
        d="M47.1012 20.2994C49.0316 23.1415 50.1893 26.5278 50.3917 30.1665H39.5279C39.4495 28.2797 39.2232 26.4473 38.8315 24.7259H36.5769C37.0034 26.4494 37.2929 28.2753 37.3799 30.1665H24.4182C24.7163 23.4506 27.6412 17.5442 29.7108 14.1972L28.2462 12.43C26.0264 15.8468 22.5553 22.406 22.2441 30.1643H11.3542C11.8678 20.9022 18.8383 13.355 27.8371 11.936L27.6282 11.6836C27.2865 11.1047 27.0275 10.5019 26.8491 9.88819C16.7774 11.7902 9.12785 20.6345 9.12785 31.2524C9.12785 43.2523 18.8905 53.0149 30.8904 53.0149C42.8902 53.0149 52.6529 43.2523 52.6529 31.2524C52.6529 26.4973 51.1012 22.1057 48.5027 18.5214L47.1012 20.2994ZM37.3734 32.3427C37.0121 40.5189 32.7358 47.4698 30.8882 50.0988C29.0427 47.4698 24.7664 40.5189 24.403 32.3427H37.3734ZM11.3585 32.3427H22.2267C22.5553 40.5733 26.4769 47.4916 28.6488 50.7016C19.2583 49.6265 11.8873 41.8856 11.3585 32.3427ZM33.1297 50.7016C35.2994 47.4894 39.221 40.5733 39.5518 32.3427H50.42C49.8912 41.8856 42.5202 49.6265 33.1297 50.7016ZM48.8444 7.31586H46.6464L42.8837 2.61516C42.27 1.48786 41.0904 0.787109 39.8043 0.787109H35.8217L38.3984 7.31586H37.6324L35.6498 5.95788C34.4268 4.72612 32.1417 5.02209 31.269 6.52806C30.7663 7.39638 30.762 8.43445 31.3735 9.46817L35.0622 13.8446H38.3679L35.8283 20.3734H39.8434C41.1253 20.3734 42.3048 19.6748 42.8206 18.6976L46.6529 13.8446H52.655V10.5802C52.655 8.65861 51.086 7.31586 48.8444 7.31586ZM50.4766 11.6684H45.5974L41.0121 17.5029C40.7792 17.9316 40.3309 18.1971 39.8434 18.1971H39.0121L41.5518 11.6684H36.072L33.1493 8.22553C32.9926 7.95132 33.0992 7.70976 33.1493 7.61836C33.2298 7.48125 33.4736 6.9089 34.2548 7.61836L36.9512 9.49211H41.591L39.0143 2.96336H39.7999C40.2874 2.96336 40.7357 3.22886 41.073 3.81427L45.5953 9.49211H48.8401C49.6279 9.49211 50.4722 9.7772 50.4722 10.5802V11.6684H50.4766ZM2.5991 31.2546C2.5991 38.7605 5.50875 45.8311 10.7905 51.1629L9.24319 52.695C3.55448 46.9519 0.422852 39.3394 0.422852 31.2546C0.422852 15.936 11.7981 5.06344 26.5379 2.9416V5.13961C13.0038 7.24404 2.5991 17.1373 2.5991 31.2546Z"
        fill="currentColor" />
</svg>
