<svg xmlns="http://www.w3.org/2000/svg" fill="none" viewBox="0 0 800 714">
    <g>
        <path stroke="currentColor" stroke-opacity=".8" stroke-width="2" d="M251 221h298v298H251z" />
        <path stroke="currentColor" stroke-opacity=".6" stroke-width="2" d="M201 171h398v398H201z" />
        <path stroke="currentColor" stroke-opacity=".4" stroke-width="2" d="M151 121h498v498H151z" />
        <path stroke="currentColor" stroke-opacity=".2" stroke-width="2" d="M101 71h598v598H101z" />
        <path stroke="currentColor" stroke-opacity=".1" stroke-width="2" d="M51 21h698v698H51z" />
        <path stroke="currentColor" stroke-opacity=".05" stroke-width="2" d="M1-29h798v798H1z" />
        <path fill="currentColor" d="M300 270h200v200H300z" />
        <path fill="#fff"
            d="M400.5 308c-34.485 0-62.5 28.015-62.5 62.5 0 11.084 3.041 21.429 8.11 30.459l-8.009 28.588a2.72 2.72 0 0 0 1.868 3.345c.457.131.94.14 1.401.026l29.812-7.388c8.76 4.678 18.7 7.47 29.318 7.47 34.491 0 62.5-28.009 62.5-62.5S434.991 308 400.5 308Zm0 5.44c31.547 0 57.06 25.517 57.06 57.06 0 31.543-25.517 57.06-57.06 57.06a56.763 56.763 0 0 1-27.822-7.244 2.709 2.709 0 0 0-1.979-.265l-26.102 6.473 7-24.975a2.716 2.716 0 0 0-.275-2.114 56.73 56.73 0 0 1-7.882-28.935c0-31.547 25.513-57.06 57.06-57.06Zm-22.711 24.451c-1.736 0-4.229.648-6.273 2.851-1.227 1.322-6.342 6.305-6.342 15.067 0 9.134 6.335 17.014 7.101 18.029h.006a76.722 76.722 0 0 0 2.367 3.233 86.354 86.354 0 0 0 5.795 6.776c4.901 5.172 11.792 11.13 20.344 14.778a96.56 96.56 0 0 0 9.399 3.428c4.363 1.371 8.334 1.158 11.321.722 2.234-.331 4.687-1.402 7.118-2.941 2.431-1.538 4.814-3.452 5.865-6.358a22.435 22.435 0 0 0 1.273-5.594c.069-.711.077-1.426.026-2.139-.051-.648 0-1.143-.599-2.134-1.265-2.077-2.698-2.131-4.193-2.871a466.13 466.13 0 0 0-5.568-2.696c-2.372-1.131-4.42-2.129-5.684-2.579-.798-.288-1.773-.701-3.179-.542-1.406.16-2.795 1.174-3.603 2.373-.767 1.135-3.852 4.778-4.793 5.848-.013-.008.07.03-.303-.154-1.163-.578-2.586-1.066-4.691-2.176a38.84 38.84 0 0 1-7.622-5.291c-4.289-3.777-7.291-8.518-8.242-10.11.064-.077-.008.016.128-.116v-.006c.969-.953 1.827-2.093 2.553-2.929 1.029-1.185 1.483-2.229 1.975-3.206.979-1.945.434-4.086-.134-5.208.04.077-.306-.686-.679-1.566-.373-.881-.84-2.043-1.349-3.263-1.018-2.442-2.153-5.179-2.829-6.784-.796-1.889-1.873-3.25-3.28-3.906a5.248 5.248 0 0 0-2.702-.472h-.005a64.708 64.708 0 0 0-3.201-.064Zm0 5.44c1.049 0 2.084.013 2.946.053.89.044.834.048.664-.032-.17-.08.062-.108.567 1.094.662 1.569 1.804 4.318 2.825 6.766.51 1.224.987 2.374 1.369 3.275.382.902.588 1.404.827 1.885l.006.005c.232.463.214.167.132.329-.573 1.138-.65 1.418-1.23 2.083-.885 1.018-1.785 2.153-2.262 2.622-.417.411-1.17 1.048-1.64 2.298s-.251 2.969.505 4.252c1.005 1.707 4.318 7.1 9.467 11.634a44.392 44.392 0 0 0 8.681 6.018c2.413 1.274 4.379 2.018 4.819 2.235 1.042.518 2.185.918 3.513.76 1.328-.159 2.472-.966 3.2-1.79.97-1.099 3.851-4.389 5.233-6.416.059.02.039 0 .499.169v.005c.209.076 2.837 1.252 5.18 2.367a434.382 434.382 0 0 1 5.493 2.662c1.115.551 1.642.911 1.778.912.016.298.01.596-.016.893a17.254 17.254 0 0 1-.971 4.218c-.286.792-1.777 2.431-3.658 3.615-1.88 1.184-4.166 2.03-5.015 2.155-2.546.375-5.573.513-8.894-.531a90.623 90.623 0 0 1-8.896-3.241c-7.534-3.219-13.945-8.693-18.524-13.52a80.871 80.871 0 0 1-5.43-6.351c-1.302-1.696-1.871-2.578-2.346-3.202-.842-1.113-5.998-8.284-5.998-14.744 0-6.836 3.176-9.517 4.894-11.368.897-.972 1.883-1.115 2.282-1.115v.005Z" />

    </g>
</svg>
