<svg xmlns="http://www.w3.org/2000/svg" xml:space="preserve" id="svg315" version="1.1" viewBox="0 0 59.71 59.999">
  <g transform="matrix(3.77953 0 0 3.77953 -1186.088 -360.84)">
    <path fill="currentColor" fill-rule="evenodd" stroke-width=".265" d="M327.317 97.78a7.816 7.816 0 0 0-5.565-2.308c-4.336 0-7.865 3.528-7.867 7.866a7.85 7.85 0 0 0 1.05 3.933l-1.116 4.076 4.17-1.094a7.856 7.856 0 0 0 3.759.958h.003c4.335 0 7.865-3.53 7.866-7.867a7.818 7.818 0 0 0-2.3-5.565zm-5.565 12.102h-.003a6.52 6.52 0 0 1-3.328-.912l-.239-.141-2.474.649.66-2.413-.155-.248a6.52 6.52 0 0 1-1-3.479 6.548 6.548 0 0 1 6.542-6.538c1.746 0 3.388.682 4.622 1.917a6.5 6.5 0 0 1 1.913 4.626c-.002 3.606-2.935 6.539-6.538 6.539zm3.586-4.897c-.196-.099-1.163-.574-1.343-.64-.18-.065-.31-.098-.443.098-.131.197-.507.64-.622.772-.115.13-.23.147-.426.048-.197-.098-.83-.305-1.58-.975a5.919 5.919 0 0 1-1.094-1.362c-.115-.197-.012-.303.086-.4.088-.089.196-.23.295-.345.099-.114.131-.196.198-.328.065-.13.033-.246-.017-.344-.05-.098-.442-1.066-.606-1.46-.16-.383-.321-.33-.442-.337a7.577 7.577 0 0 0-.377-.007.72.72 0 0 0-.524.247c-.18.197-.688.672-.688 1.64 0 .967.704 1.901.802 2.033.098.13 1.386 2.116 3.358 2.967a11.398 11.398 0 0 0 1.12.415c.471.149.9.128 1.238.078.378-.057 1.163-.476 1.327-.935.164-.46.164-.854.115-.935-.05-.083-.18-.131-.377-.23z" clip-path="none" clip-rule="evenodd"/>
  </g>
</svg>
